<?xml version="1.0" encoding="utf-8"?>
<!-- Generator: Adobe Illustrator 24.3.0, SVG Export Plug-In . SVG Version: 6.00 Build 0)  -->
<svg version="1.1" id="Layer_1" xmlns="http://www.w3.org/2000/svg" xmlns:xlink="http://www.w3.org/1999/xlink" x="0px" y="0px"
	 viewBox="0 0 155 41" style="enable-background:new 0 0 155 41;" xml:space="preserve">
<style type="text/css">
	.st0{fill:url(#SVGID_1_);}
	.st1{fill:#FFFFFF;}
	.st2{fill:none;}
	.st3{fill:url(#SVGID_2_);}
</style>
<g>
	<linearGradient id="SVGID_1_" gradientUnits="userSpaceOnUse" x1="45.3936" y1="16.8014" x2="66.7048" y2="16.8014">
		<stop  offset="0" style="stop-color:#600B4F"/>
		<stop  offset="0.4273" style="stop-color:#4A1C6D"/>
		<stop  offset="0.8883" style="stop-color:#2E3191"/>
	</linearGradient>
	<polygon class="st0" points="49.3,16 57.6,32.2 66.7,32.1 50.3,1.5 45.4,11.5 	"/>
	<path class="st1" d="M105.6,24.9h-9.1V1.5h9.1V24.9z"/>
	<g>
		<path class="st2" d="M76.1,18.2c1.7,0,3-0.4,3.9-1.3c0.9-0.9,1.3-2.1,1.3-3.7c0-1.6-0.4-2.8-1.3-3.7c-0.9-0.9-2.2-1.3-3.9-1.3
			h-5.8v10H76.1z"/>
		<path class="st1" d="M83.8,22.8c2.3-1,3.9-2.4,5-4c1.1-1.7,1.6-3.7,1.6-6.3c0-3.5-1.3-6.2-3.8-8.1c-2.5-1.9-6-2.9-10.5-2.9h-5.8
			v6.7h5.8c1.7,0,3,0.4,3.9,1.3c0.9,0.9,1.3,2.1,1.3,3.7c0,1.6-0.4,2.8-1.3,3.7c-0.9,0.9-2.2,1.3-3.9,1.3h-5.8v6.7h4.9l6.7,12.8h9.8
			v-0.4L83.8,22.8z"/>
	</g>
	<g>
		<path class="st2" d="M12.7,31c2.6,0,4.6-0.9,6-2.7c1.4-1.8,2.1-4.4,2.1-7.9v-1.6c0-3.5-0.7-6.1-2.1-7.9c-1.4-1.8-3.4-2.7-6.1-2.7
			H2.7V31H12.7z"/>
		<path class="st1" d="M27.9,9.9c-1.5-2.6-3.6-4.7-6.2-6.1c-2.7-1.4-5.7-2.2-9-2.2H2.7v6.7h9.9c2.7,0,4.7,0.9,6.1,2.7
			c1.4,1.8,2.1,4.4,2.1,7.9v1.6c0,3.5-0.7,6.2-2.1,7.9c-1.4,1.8-3.4,2.7-6,2.7h-10v6.7h10.2c3.3,0,6.2-0.8,8.9-2.2
			c2.7-1.5,4.7-3.5,6.2-6.2c1.5-2.6,2.2-5.6,2.2-8.9v-1.7C30.1,15.5,29.4,12.5,27.9,9.9z"/>
	</g>
	<linearGradient id="SVGID_2_" gradientUnits="userSpaceOnUse" x1="33.2527" y1="16.4646" x2="54.0888" y2="16.4646">
		<stop  offset="0" style="stop-color:#AA377C"/>
		<stop  offset="1" style="stop-color:#50479C"/>
	</linearGradient>
	<polygon class="st3" points="50.2,1.2 54.1,8.7 42.7,31.8 33.3,31.8 	"/>
	<g>
		<path class="st2" d="M141,19.2c0-3.6-0.8-6.3-2.4-8.2c-1.6-1.9-3.9-2.8-6.8-2.8c-5.8,0-8.9,3.3-9.2,9.8l0,2.7c0,1.6,0.2,3,0.5,4.2
			h17.5c0.3-1.2,0.4-2.5,0.5-4V19.2z"/>
		<path class="st1" d="M122.6,20.7l0-2.7c0.3-6.6,3.4-9.8,9.2-9.8c3,0,5.2,0.9,6.8,2.8c1.6,1.9,2.4,4.6,2.4,8.2v1.7
			c0,1.5-0.2,2.8-0.5,4h11.8c0.3-1.3,0.5-2.7,0.5-4.2v-1.7c0-3.5-0.9-6.6-2.7-9.3c-1.8-2.7-4.2-4.8-7.4-6.2
			c-3.2-1.5-6.8-2.2-10.9-2.2c-4.1,0-7.8,0.7-11,2.2c-3.2,1.5-5.7,3.6-7.4,6.3c-1.7,2.7-2.6,5.8-2.6,9.4v2c0,1.3,0.2,2.5,0.4,3.6
			h11.8C122.8,23.7,122.6,22.3,122.6,20.7z"/>
	</g>
	<g>
		<path class="st1" d="M110.8,39.8V27.4h5.3c1.5,0,2.8,0.2,3.9,0.7s2.1,1.2,2.7,2.1c0.7,0.9,1,1.9,1,3.1v0.6c0,1.1-0.3,2.2-1,3.1
			c-0.6,0.9-1.5,1.6-2.7,2.1s-2.4,0.8-3.9,0.8H110.8z M114.8,29.7v7.8h1.4c1.1,0,2-0.3,2.6-0.9c0.6-0.6,0.9-1.5,0.9-2.7v-0.5
			c0-1.2-0.3-2.1-0.9-2.7c-0.6-0.6-1.5-0.9-2.7-0.9H114.8z"/>
		<path class="st1" d="M136,34.5h-6.2v3h7.4v2.3h-11.3V27.4h11.3v2.3h-7.4v2.6h6.2V34.5z"/>
		<path class="st1" d="M145.1,36.4l3.3-9.1h4.4l-5.5,12.5h-4.3l-5.5-12.5h4.4L145.1,36.4z"/>
	</g>
	<polygon class="st1" points="69.1,38.8 30.9,38.8 33.3,34.1 66.7,34.1 	"/>
</g>
</svg>
