<?xml version="1.0" encoding="utf-8"?>
<!-- Generator: Adobe Illustrator 24.3.0, SVG Export Plug-In . SVG Version: 6.00 Build 0)  -->
<svg version="1.1" id="Layer_1" xmlns="http://www.w3.org/2000/svg" xmlns:xlink="http://www.w3.org/1999/xlink" x="0px" y="0px"
	 viewBox="0 0 20.4 19.9" style="enable-background:new 0 0 20.4 19.9;" xml:space="preserve">
<style type="text/css">
	.st0{fill:#FFFFFF;}
</style>
<path class="st0" d="M10.2,0C4.6,0,0,4.6,0,10.2c0,4.5,2.9,8.3,7,9.7c0.5,0.1,0.7-0.2,0.7-0.5v-1.9c-2.8,0.6-3.4-1.2-3.4-1.2
	c-0.5-1.2-1.1-1.5-1.1-1.5c-0.9-0.6,0.1-0.6,0.1-0.6c1,0.1,1.6,1.1,1.6,1.1c0.9,1.6,2.4,1.1,3,0.8c0.1-0.7,0.4-1.1,0.6-1.4
	c-2.3-0.3-4.6-1.1-4.6-5c0-1.1,0.4-2,1-2.7C4.6,6.7,4.3,5.6,4.8,4.2c0,0,0.9-0.3,2.8,1C8.5,5,9.3,4.9,10.2,4.9
	c0.9,0,1.7,0.1,2.6,0.3c1.9-1.3,2.8-1,2.8-1c0.6,1.4,0.2,2.4,0.1,2.7c0.7,0.7,1,1.6,1,2.7c0,3.9-2.4,4.8-4.7,5
	c0.4,0.3,0.7,0.9,0.7,1.9v2.8c0,0.3,0.2,0.6,0.7,0.5c4-1.3,7-5.2,7-9.7C20.4,4.6,15.8,0,10.2,0z"/>
</svg>
